<svg xmlns="http://www.w3.org/2000/svg" width="720" height="840" viewBox="0 0 720 840" role="img" aria-label="기억 CD와 우주 포토카드 키링 홍보 비주얼">
<defs><linearGradient id="bg" x2="1" y2="1"><stop stop-color="#171b39"/><stop offset=".58" stop-color="#3b315c"/><stop offset="1" stop-color="#141c37"/></linearGradient><radialGradient id="neb"><stop stop-color="#d4b2ee"/><stop offset=".33" stop-color="#9974cb"/><stop offset=".65" stop-color="#495bb0"/><stop offset="1" stop-color="#121832"/></radialGradient><linearGradient id="disc" x1="0" y1="0" x2="1" y2="1"><stop stop-color="#e9e2ff"/><stop offset=".2" stop-color="#86d9e0"/><stop offset=".44" stop-color="#f7bce7"/><stop offset=".65" stop-color="#a29dec"/><stop offset=".87" stop-color="#d9edfb"/><stop offset="1" stop-color="#ad9af2"/></linearGradient><linearGradient id="ac" x2="1" y2="1"><stop stop-color="#ffffff" stop-opacity=".75"/><stop offset=".6" stop-color="#d8deff" stop-opacity=".22"/><stop offset="1" stop-color="#a8a6ed" stop-opacity=".58"/></linearGradient><filter id="shadow"><feGaussianBlur stdDeviation="20"/></filter></defs>
<rect width="720" height="840" rx="28" fill="url(#bg)"/><g opacity=".7" fill="#fff"><circle cx="102" cy="97" r="2"/><circle cx="534" cy="115" r="2"/><circle cx="612" cy="284" r="1.8"/><circle cx="82" cy="668" r="2"/><circle cx="590" cy="701" r="1.6"/><circle cx="231" cy="71" r="1"/><circle cx="438" cy="580" r="1.2"/></g><path d="M119 180v30M104 195h30M581 480v40M561 500h40" stroke="#e8dbff" stroke-width="2" opacity=".7"/>
<ellipse cx="389" cy="515" rx="237" ry="55" fill="#03071e" opacity=".55" filter="url(#shadow)"/>
<g transform="translate(330 385) rotate(-15)"><rect x="-125" y="-130" width="290" height="300" rx="13" fill="#bdc4e4" opacity=".25"/><rect x="-114" y="-140" width="292" height="292" rx="10" stroke="url(#ac)" stroke-width="5" fill="#999ac6" fill-opacity=".07"/><circle cx="24" cy="5" r="126" fill="url(#disc)" stroke="#f1eaf9" stroke-width="3"/><circle cx="24" cy="5" r="106" fill="none" stroke="#ffffff" stroke-opacity=".45" stroke-width="2"/><circle cx="24" cy="5" r="68" fill="none" stroke="#ffffff" stroke-opacity=".32" stroke-width="2"/><circle cx="24" cy="5" r="23" fill="#e5e1fa"/><circle cx="24" cy="5" r="9" fill="#202345"/><path d="M-72 30Q25 -110 117 28" fill="none" stroke="#fff" stroke-opacity=".5" stroke-width="10"/><text x="24" y="-35" fill="#171a3b" font-family="Georgia" font-size="22" text-anchor="middle" font-weight="bold">MEMORY</text><text x="24" y="70" fill="#293159" font-family="Georgia" font-size="20" text-anchor="middle">CD</text></g>
<g transform="translate(160 465) rotate(13)"><ellipse cy="140" cx="96" rx="105" ry="23" opacity=".5" fill="#080b24" filter="url(#shadow)"/><path d="M95 -70V-44" stroke="#edeaff" stroke-width="10"/><circle cx="95" cy="-84" r="23" fill="none" stroke="#dbddfa" stroke-width="10"/><path d="M92 -64Q55 -37 50 -10" fill="none" stroke="#e5e9ff" stroke-width="7"/><rect x="4" y="-10" width="180" height="280" rx="20" fill="url(#ac)" stroke="#f2eeff" stroke-width="7"/><rect x="16" y="4" width="156" height="252" rx="13" fill="url(#neb)"/><g stroke="#ffe8ff" opacity=".9"><path d="M88 60v20M78 70h20"/><path d="M135 170v12M129 176h12"/></g><text x="94" y="202" text-anchor="middle" fill="#fff" font-family="Georgia" font-size="22" font-style="italic">my universe</text><text x="94" y="225" text-anchor="middle" fill="#e9e6ff" font-family="sans-serif" font-size="9" letter-spacing="3">FOREVER</text></g>
<text x="360" y="739" fill="#e5ddff" font-family="Georgia,serif" font-style="italic" text-anchor="middle" font-size="30">a little piece of the universe</text><text x="360" y="778" fill="#bbb8d8" font-family="Arial,sans-serif" text-anchor="middle" font-size="14" letter-spacing="4">TAPMOMENT · KEEPSAKES</text>
</svg>
